<mxfile host="app.diagrams.net" modified="2023-07-09T23:54:19.794Z" agent="Mozilla/5.0 (Macintosh; Intel Mac OS X 10.15; rv:109.0) Gecko/20100101 Firefox/114.0" version="21.5.2" etag="lkyEv0xIcucXEhS3ulIo" type="github">
  <diagram name="PÃ¡gina-1" id="N8711XgUizgRqLDlAoS9">
    <mxGraphModel>
      <root>
        <mxCell id="0" />
        <mxCell id="1" parent="0" />
      </root>
    </mxGraphModel>
  </diagram>
</mxfile>
